<?xml version="1.0" encoding="iso-8859-1"?>
<!-- Generator: Adobe Illustrator 19.0.0, SVG Export Plug-In . SVG Version: 6.00 Build 0)  -->
<svg version="1.1" id="Capa_1" xmlns="http://www.w3.org/2000/svg" xmlns:xlink="http://www.w3.org/1999/xlink" x="0px" y="0px"
	 viewBox="0 0 118.307 118.307" style="enable-background:new 0 0 118.307 118.307;" xml:space="preserve">
<g id="_x30_304-cloud-icon-weather">
	<g>
		<path style="fill-rule:evenodd;clip-rule:evenodd;" d="M63.671,17.194c6.444,1.399,9.753-3.674,6.736-9.197
			c-0.871-1.594-1.829-3.742-3.259-4.936c-0.986-0.65-0.399-2.228-1.316-2.889c-0.268-0.192-0.657-0.204-1.031-0.132
			c-0.276,0.053-0.543,0.152-0.745,0.256c-0.558,0.288-0.954,0.797-1.262,1.331c-0.645,1.118-1.026,2.39-1.34,3.634
			c-0.591,2.339-1.014,4.826-1.058,7.245C60.354,14.889,61.094,16.635,63.671,17.194z M65.138,7.083
			c0.962,0.371,2.544,2.76,2.733,3.723c0.269,1.354-0.762,2.248-2.167,1.15c-0.249-0.193-0.457-0.48-0.618-0.824
			C64.506,9.903,64.495,7.973,65.138,7.083z M86.181,29.6c4.647-0.133,4.657-5.547,3.399-8.691c-0.93-2.328-1.593-6.233-3.619-7.84
			c-0.731-0.58-1.393-0.463-1.983,0.088c-2.094,1.957-3.285,9.402-3.416,10.717C80.155,27.975,81.94,29.723,86.181,29.6z
			 M86.201,22.839c0.055,0.215,0.103,0.435,0.135,0.65c0.113,0.779-0.006,1.512-0.916,1.858
			C81.679,26.759,84.96,17.968,86.201,22.839z M37.869,33.272c3.68-0.604,6.835-2.815,5.845-6.775c-0.501-2-2.069-3.315-2.982-5.059
			c-0.708-1.348-1.208-4.076-2.857-4.682c-0.196-0.074-0.387-0.092-0.571-0.06c-1.825,0.299-3.123,5.163-3.829,6.492
			c-1.449,2.721-3.584,6.396-0.897,9.084C33.885,33.579,36.016,33.579,37.869,33.272z M35.351,26.356
			c0.563-1.828,3.5-2.314,4.23-0.221c0.74,2.123-3.662,4.194-4.265,1.387C35.222,27.09,35.245,26.7,35.351,26.356z M105.048,57.155
			c-2.56-10.059-8.247-18.971-17.793-23.6c-5.219-2.09-10.286-2.68-15.861-2.68c-1.373,0-2.966-0.25-4.301,0.109
			c-0.57,0.153-1.617,0.449-2.199,0.303c-0.884-0.223-1.085-0.922-2.435-0.412c0.187-1.957-1.265-5.467-3.677-4.668
			c-0.147,0.049-0.298,0.115-0.453,0.195c-1.531,0.818-2.042,3.557-2.289,5.094c-0.336,2.082-0.573,1.56-2.527,2.027
			c-1.331,0.316-2.502,0.959-3.832,1.262c-5.426,1.238-10.91,4.25-15.684,7.09c-9.976,5.931-18.018,14.789-21.464,26.014
			c-0.591,1.919-1.985,12.797,2.627,11.045c2.279-0.865,3.593-2.631,6.218-2.967c1.668-0.215,6.046-1.27,7.317,0.176
			c1.08,1.225,1.179,3.149,3.27,2.984c0.97-0.139,1.798-0.654,2.156-1.596c0.394-1.033,1.287-1.771,2.142-2.566
			c3.787-3.521,8.916-4.643,13.902-4.564c1.637,0.025,3.968,0.08,4.921,1.689c-0.18,2.461-0.311,4.927-0.408,7.393
			c-0.202,5.107-0.261,10.219-0.274,15.33c-0.014,5.178-0.283,10.262,1.338,15.254c0.948,2.922,3.124,7.387,6.716,7.598
			c3.285,1.555,8.048,0.039,10.768-1.918c1.426-1.029,2.628-2.256,3.881-3.307c0.547-0.457,2.066-3.074,2.106-3.822
			c0.078-1.479,1.094-3.348,1.087-5.123c-0.006-1.932-0.379-3.947-1.422-5.602c-0.81-0.383-3.389-0.117-4.255,0.035
			c-1.739,0.305-2.671,1.414-2.768,3.09c-0.222,3.85,1.761,7.922-2.079,10.438c-3.235,2.119-7.408,1.539-9.001-2.252
			c-3.144-7.488-1.404-16.572-1.282-24.434c0.05-3.238-0.935-7.129,0.342-9.772c1.276-2.641,1.832-4.158,4.726-5.891
			c3.881-2.32,8.727-3.319,12.976-1.371c1.844,1.352,0.987,5.092,4.021,5.025c2.074,0.176,2.327-2.641,3.409-3.762
			c1.451-1.506,3.586-1.805,5.566-1.697c2.976,0.166,5.662,2.306,7.645,4.349c2.794,2.883,5.717,3.066,7.33-0.881
			C107.292,66.409,106.164,61.542,105.048,57.155z M58.45,43.257C58.47,43.471,58.474,43.512,58.45,43.257L58.45,43.257z
			 M58.387,42.601c0.023,0.237,0.04,0.418,0.052,0.548C58.426,43.006,58.408,42.817,58.387,42.601
			c-0.026-0.273-0.058-0.616-0.1-1.051C58.323,41.921,58.358,42.289,58.387,42.601z M29.953,70.079
			c-3.878-0.598-9.305-0.992-12.733,1.342c-1.251-0.854,1.965-5.909,2.411-6.77c1.473-2.836,3.407-5.467,5.502-7.881
			c3.911-4.502,9.112-8.641,14.537-11.15c-1.603,0.74,1.312-1.037,0,0c1.312-1.037,3.033-1.66,4.692-2.347
			c0.435,0.144-2.246,3.012-2.555,3.479c-1.579,2.388-3.136,4.744-4.733,7.162C33.944,58.645,30.39,64.27,29.953,70.079z
			 M58.101,67.065c-3.132-3.101-9.375-2.553-13.293-1.9c-2.039,0.338-4.532,0.812-6.284,1.981c-0.41,0.273-3.176,2.15-3.209,1.928
			c2.099-7.336,5.095-14.549,9.734-20.664c2.268-2.989,4.924-5.684,7.932-7.93c0.689-0.516,5.002-2.166,5.12-0.894
			C58.933,48.348,58.979,58.319,58.101,67.065z M69.791,61.532c-1.609,0.258-3.407,0.461-4.869,1.229
			c-1.148,0.602-2.153,1.403-3.47,1.623c0.782-4.565,0.693-9.238,0.542-13.85c-0.12-3.625-0.03-7.578-0.899-11.094
			c-0.369-1.494,1.04-1.287,2.329-1.472c1.857-0.271,2.059-0.03,3.48,1.555c1.394,1.554,2.794,3.105,4.093,4.741
			c1.152,1.451,2.372,3.018,3.249,4.675c0.072,0.136,0.142,0.273,0.209,0.41c0.127,0.259,0.283,0.534,0.475,0.753
			c0.307,0.35,0.395,0.815,0.604,1.218c0.247,0.474,0.487,0.952,0.715,1.436c0.467,0.99,0.891,2.001,1.274,3.026
			c0.812,2.175,1.44,4.417,1.91,6.69c0.04,0.191,0.078,0.382,0.115,0.573C76.418,61.454,73.266,60.971,69.791,61.532z
			 M93.724,62.497c-1.877-0.746-4.071-0.459-6.135-0.459c-1.53,0.213-2.81,1.184-4.356,1.34c-0.459-5.525-2.681-9.705-4.989-14.418
			c-0.884-1.805-1.724-3.549-3.159-4.861c-0.618-0.566-1.034-1.652-1.711-2.307c-0.906-0.875-1.876-1.799-2.54-2.873
			c0.024,0.037,0.514,0.834,0,0c0.024,0.037-1.896-1.982-1.005-1.677c8.379,0,17.019,0.827,22.392,8.102
			c1.259,1.703,2.665,3.08,3.546,5.016c0.807,1.771,1.554,3.572,2.178,5.418c1.22,3.604,1.557,8.071,1.707,10.951
			C99.163,64.639,95.419,63.167,93.724,62.497z"/>
	</g>
</g>
<g>
</g>
<g>
</g>
<g>
</g>
<g>
</g>
<g>
</g>
<g>
</g>
<g>
</g>
<g>
</g>
<g>
</g>
<g>
</g>
<g>
</g>
<g>
</g>
<g>
</g>
<g>
</g>
<g>
</g>
</svg>
