<?xml version="1.0" encoding="iso-8859-1"?>
<!-- Generator: Adobe Illustrator 19.0.0, SVG Export Plug-In . SVG Version: 6.00 Build 0)  -->
<svg version="1.1" id="Capa_1" xmlns="http://www.w3.org/2000/svg" xmlns:xlink="http://www.w3.org/1999/xlink" x="0px" y="0px"
	 viewBox="0 0 107.349 107.349" style="enable-background:new 0 0 107.349 107.349;" xml:space="preserve">
<g id="_x30_302-snow-snowflakes-icon">
	<g>
		<path style="fill-rule:evenodd;clip-rule:evenodd;" d="M9.827,28.57c2.058,3.471,3.625-3.014,4.155-4.445
			c1.208-3.269,1.843-0.994,2.883,1.386c0.887,2.028,2.248,6.425,5.252,5.73c4.625-1.696,0.716-6.912-0.335-9.717
			c1.056,0.086,6.375,1.332,6.366-0.669c0.901-0.15-2.101-2.689-3.015-2.682c-1.429-1.077-3.493-0.497-5.026-1.341
			c0.87-1.241,3.574-2.429,4.917-2.957c1.608-0.632,3.221-1.7,4.739-2.532c2.371-1.3,6.608-3.33,6.093-6.575
			c-1.551-1.167-2.704-1.228-4.27,0.087c-1.573,1.322-3.415,2.12-5.114,3.264c-0.688,0.337-7.772,4.538-8.042,4.021
			c0.309-1.413,3.464-9.526-0.65-7.883c-1.074,0.429-2.741,3.788-3.054,5.872c-0.084,0.56-0.07,1.03,0.08,1.324
			c-0.854-1.676-1.628-3.374-2.48-5.033C11.754,5.308,10.11,1.26,9.048,0.747C6.329-0.562,4.467,1.813,5.234,4.394
			c0.567,1.911,2.168,4.269,3.334,5.812c0.35,0.462,2.439,3.747,1.82,3.945c-1.259-0.21-10.009-3.588-7.703,0.618
			c1.263,2.304,4.755,1.495,6.362,3.404C6.669,19.916,0.062,22.34,0,25.88c2.757,2.387,8.108-2.502,10.72-3.35
			C9.518,22.92,9.31,27.699,9.827,28.57z M106.705,11.517c-2.536-3.928-8.879,1.663-11.874,2.634
			c1.078-0.35,1.707-10.633,0.955-11.678c-0.555-0.77-1.407-1.094-2.282-1.088c-0.897,0.007-1.818,0.358-2.47,0.927
			c-4.007,3.495-1.771,9.799-4.579,13.515c-3.214-1.4-6.182-3.691-9.021-5.724c-1.819-1.3-5.31-2.853-6.729-0.307
			c-0.362,2.728,1.726,4.961,4.223,6.366c1.65,0.927,6.271,3.416,6.835,5.362c-2.673,1.157-4.955,3.065-7.51,4.43
			c-1.81,0.966-4.132,1.627-4.553,3.947c-1.827,3.567,2.842,3.885,4.956,3.086c2.863-1.081,5.77-2.455,8.783-3.086
			c-0.585,1.666-4.938,16.198,1.216,12.14c1.445-0.952,1.673-1.977,1.96-3.685c0.229-1.362,0.971-2.325,1.506-3.591
			c1.011-2.391,1.616-4.999,3.025-7.209c2.804,1.681,5.46,3.618,8.131,5.475c2.482,1.725,4.75,1.723,6.613-0.783
			c0.601-5.622-6.959-6.455-9.718-10.053c2.743-1.679,5.285-3.448,8.084-4.985C106.487,15.984,108.388,14.121,106.705,11.517z
			 M70.225,81.025c-1.852,0.564-2.179,0.24-3.776-0.791c-0.971-0.626-1.95-1.237-2.934-1.841c-2.301-1.409-4.623-2.784-6.883-4.259
			c3.178-2.376,6.113-5.111,9.694-6.892c1.452-0.724,3.568,0.593,5.141,1.153c1.481,0.527,2.741,0.919,4.318,1.168
			c2.291,0.361,6.422-1.536,3.339-3.895c-1.646-1.26-4.007-0.827-5.737-1.922c2.471-1.789,6.792-3.628,6.031-7.371
			c-1.591-0.302-2.264-0.883-3.798-0.113c-0.924,0.462-1.86,1.046-2.822,1.422c-0.445,0.172-2.629,1.431-2.762,1.035
			c0.909-1.751,1.758-5.885,0-7.372c-3.95,0.474-6.227,6.517-6.882,9.874c-0.488,2.497-1.093,2.182-3.259,3.107
			c-1.156,0.494-2.199,1.053-3.278,1.635c-0.614,0.331-3.951,2.08-4.005,1.804c-0.107-2.374-0.303-4.744-0.533-7.108
			c-0.112-1.155-0.233-2.312-0.354-3.467c-0.167-1.606,0.451-1.599,1.63-2.563c1.778-1.454,7.254-4.988,5.288-7.973
			c-1.734-1.205-3.464,0.329-4.583,1.449c-0.164,0.161-1.643,1.779-2.034,1.651c-0.015,0.063-0.042,0.056-0.085-0.085
			c0-0.357,0.007-0.565,0.016-0.681c0.091-2.668,0.417-9.157-3.496-7.893c-3.178,1.027-3.2,5.792-2.888,8.573
			c-1.198-1.317-4.534-3.735-6.366-1.34c-0.305,2.877,4.779,5.393,6.232,7.561c1.027,1.534,0.646,5.024,0.263,6.767
			c-0.291,1.323,0.431,3.814-0.798,4.772c-3.152-1.969-6.414-3.972-9.728-5.625c-1.42-0.71-3.003-1.284-4.131-2.451
			c-1.292-1.332-0.444-2.751-1.234-4.197c-1.105-2.021-1.15-5.431-4.008-5.822c-3.653,0.563-1.116,4.363-1.34,6.703
			c-1.026-0.458-8.115-2.417-8.043,0c1.299,2.926,5.688,3.492,8.043,5.696c-2.948,1.186-9.552-1.286-9.048,3.35
			c0.646,1.768,4.584,1.667,6.075,1.653c3.084-0.027,6.3,0.366,9.339-0.312c1.697,1.441,4.555,3.562,6.597,4.351
			c1.096,0.424,1.539,1.302,2.515,1.618c0.931,0.301,2.08,0.605,2.281,1.739c-0.616,1.34-3.097,2.13-4.307,2.815
			c-1.947,1.1-3.896,2.197-5.833,3.322c-2.521,1.463-4.371,2.286-7.279,2.42c-2.236,0.104-4.473,0.15-6.711,0.168
			c-1.622,0.015-11.501-0.678-8.464,3.86c1.579,2.358,5.913,0.554,8.132,1.823c-1.906,1.557-5.057,1.868-4.691,5.697
			c1.204,1.821,4.605,0.379,5.874-0.492c0.516-0.356,3.16-1.627,3.173-1.518c-0.511,2.28-3.385,7.939,0.527,8.688
			c2.213,0.423,4.436-3.782,4.499-5.673c0.913-1.388,1.563-3.28,2.249-4.787c0.904-1.989,2.225-2.062,4.17-2.915
			c4.035-1.771,7.698-4.185,11.676-6.036v7.54c0,2.619-0.498,3.215-2.499,4.816c-2.401,1.923-6.071,4.687-3.868,8.085
			c4.209,0.634,4.011-3.139,7.037-3.687c0.304,3.716-0.514,8.555,3.351,8.712c4.775-0.926,2.09-5.617,3.686-8.376
			c1.829,1.4,3.337,5.083,6.032,4.69c3.204-0.46,0.178-4.502-0.984-5.457c-1.255-1.031-2.271-2.331-3.467-3.447
			c-1.589-1.482-1.581-2.644-1.581-4.738c0-0.991-0.738-8.79,0.335-9.145c4.809,2.518,9.475,5.344,13.738,8.714
			c1.448,2.409,0.401,8.593,4.356,8.713c1.436,0.001,2.239-1.881,1.854-3.018c-0.554-1.628,0.075-1.615,1.352-1.117
			c1.934,0.759,5.049,1.186,5.506-1.562c0.391-4.315-5.382-4.365-6.367-7.708c2.814-0.46,9.318-2.108,8.713-6.031
			C79.413,76.186,73.313,80.086,70.225,81.025z M52.024,49.757c0.05-0.21-0.032-1.206-0.069-0.765
			c-0.009,0.264-0.016,0.503-0.016,0.681C51.955,49.721,51.986,49.744,52.024,49.757z"/>
	</g>
</g>
<g>
</g>
<g>
</g>
<g>
</g>
<g>
</g>
<g>
</g>
<g>
</g>
<g>
</g>
<g>
</g>
<g>
</g>
<g>
</g>
<g>
</g>
<g>
</g>
<g>
</g>
<g>
</g>
<g>
</g>
</svg>
