<?xml version="1.0" encoding="iso-8859-1"?>
<!-- Generator: Adobe Illustrator 19.0.0, SVG Export Plug-In . SVG Version: 6.00 Build 0)  -->
<svg version="1.1" id="Capa_1" xmlns="http://www.w3.org/2000/svg" xmlns:xlink="http://www.w3.org/1999/xlink" x="0px" y="0px"
	 viewBox="0 0 114.999 114.999" style="enable-background:new 0 0 114.999 114.999;" xml:space="preserve">
<g id="_x30_104-lightning-icon">
	<g>
		<path style="fill-rule:evenodd;clip-rule:evenodd;" d="M87.396,36.389c-2.326-1.57-5.675-1.483-8.312-2.244
			c-2.625-0.76-6.123-0.992-8.444-2.449c3.106-5.117,7.008-10.184,10.866-14.744c1.673-1.977,3.141-4.197,4.974-6.031
			c1.189-1.188,3.354-3.451,2.994-5.373c-0.057-0.307-0.178-0.604-0.376-0.885c-1.182-1.684-3.865-2.34-5.723-2.875
			c-2.289-0.658-4.966-0.158-7.378-0.383c-2.45-0.232-4.954-0.67-7.368-1.094c-2.743-0.484-5.268-0.314-8.007-0.078
			c-2.432,0.215-3.904,0.213-5.267,2.35c-0.963,1.512-1.772,3.113-2.621,4.689c-4.404,8.162-9.33,16.037-13.909,24.109
			c-2.288,4.033-4.952,7.898-6.748,12.129c-1.159,2.723-4.495,7.267-3.323,10.303c1.494,1.781,4.17,1.449,6.209,1.17
			c1.872-0.254,4.223-0.217,5.883-0.806c1.422-0.503,3.386,0.063,4.921-0.272c2.405-0.525,5.326-0.092,7.784-0.092
			c-3.816,6.543-8.196,12.731-12.22,19.143c-1.065,1.697-2.105,3.412-3.104,5.15c-0.741,1.287-1.107,3.291-2.701,3.021
			c-2.188-0.371-5.664-1.225-7.713-0.604c-0.784,0.236-3.811,0.064-4.167,0.951c-0.713,1.773-0.101,4.059,0.266,5.916
			c1.219,6.144,3.381,12.053,4.367,18.252c0.401,2.525,0.745,6.088,2.277,8.213c1.246,1.73,4.583,1.207,6.124,0.324
			c5.246-2.998,9.747-7.168,14.861-10.438c2.838-1.998,5.843-3.746,8.712-5.695c2.17-1.398,4.983-2.932,6.762-4.824
			c4.703-5.004-4.37-8.09-7.767-8.582c4.439-6.746,8.983-13.426,13.352-20.217c4.079-6.342,9.573-11.531,14.419-17.258
			c1.52-1.795,3.738-4.021,4.474-6.344C92.484,37.699,89.366,37.654,87.396,36.389z M71.964,53.351
			c-2.805,4.172-5.485,8.357-8.208,12.533c-2.676,4.101-5.326,9.133-8.552,12.814c-1.589,1.816-2.437,4.123-3.968,5.904
			c-1.169,1.359-1.992,2.492-1.706,4.396c1.81,1.654,5.798,1.127,8.378,2.008c-4.434,2.889-8.476,6.381-12.879,9.191
			c-1.02,0.65-1.91,1.324-2.82,2.178c-1.869,1.75-3.683,3.695-6.083,4.715c-1.457-6.469-2.12-13.738-3.685-20.104
			c2.27,0.078,4.479,0.154,6.7,0.67c1.829-0.51,2.371-2.467,3.032-4.006c1.65-3.84,3.72-7.762,6.15-11.152
			c3.004-4.193,5.71-8.563,8.328-13.006c1.316-2.234,2.733-4.441,3.893-6.748c0.63-1.252,2.249-2.746,1.719-4.295
			c-0.558-2.754-8.209-1.341-10.276-1.341c-4.653,0-9.571,0.382-14.186,1.007c0.85-2.438,2.316-6.319,4.356-8.043
			c0.67-2.162,2.324-4.531,3.57-6.416c1.356-2.047,3.492-0.623,5.666-0.586c1.497,0.023,3.495-0.277,3.833-2.045
			c0.005-3.1-3.446-3.162-5.698-3.685c1.396-1.834,1.176-2.875,3.632-2.453c1.249,0.215,2.487,0.494,3.743,0.67
			c2.029,0.283,4.803,0.406,5.694-1.902c-0.159-4.098-5.123-3.93-8.042-4.693c0.303-1.055,1.123-2.721,2.13-2.621
			c1.461,0.152,2.903,0.445,4.357,0.644c2.146,0.297,5.101,0.619,6.582-1.373c0.216-4.686-4.351-4.588-8.713-4.693
			c0.485-1.34,0.533-3.463,1.938-3.93c0.214-0.072,0.459-0.103,0.743-0.09c1.621,0.082,18.117,1.242,18.095,1.342
			c-0.412,1.781-2.907,3.564-4.045,4.867c-1.827,2.092-3.694,4.16-5.473,6.305c-3.491,4.205-7.203,8.312-10.376,12.769
			c-1.1,1.545-2.476,3.912-1.297,5.535c0.798,1.1,4.623,0.606,5.787,0.635c5.625,0.139,11.059,1.396,16.409,3.061
			C79.028,46.082,74.678,49.314,71.964,53.351z"/>
	</g>
</g>
<g>
</g>
<g>
</g>
<g>
</g>
<g>
</g>
<g>
</g>
<g>
</g>
<g>
</g>
<g>
</g>
<g>
</g>
<g>
</g>
<g>
</g>
<g>
</g>
<g>
</g>
<g>
</g>
<g>
</g>
</svg>
