<?xml version="1.0" encoding="iso-8859-1"?>
<!-- Generator: Adobe Illustrator 19.0.0, SVG Export Plug-In . SVG Version: 6.00 Build 0)  -->
<svg version="1.1" id="Capa_1" xmlns="http://www.w3.org/2000/svg" xmlns:xlink="http://www.w3.org/1999/xlink" x="0px" y="0px"
	 viewBox="0 0 114.682 114.682" style="enable-background:new 0 0 114.682 114.682;" xml:space="preserve">
<g id="_x30_202-sw-wind-direction-icon">
	<g>
		<path style="fill-rule:evenodd;clip-rule:evenodd;" d="M23.933,17.578c0.444,0.551,1.037,0.957,1.471,1.502
			c0.35,0.44,0.65,0.968,0.973,1.436c0.618,0.899,1.208,1.853,2.073,2.541c0.446,0.355,0.948,0.621,1.491,0.798
			c0.399,0.127,1.635,0.512,2.008,0.278c3.338-2.099,3.228-7.327,4.022-10.725c3.196,1.726,10.777,8.972,12.716,2.199
			c0.82-2.87,0.961-5.917,1.012-8.885c0.026-1.523,0.216-3.37-0.432-4.839c-0.229-0.522-0.605-0.978-1.062-1.311
			c-0.871-0.633-2.033-0.815-3.03-0.166c-2.779,1.811-1.732,7.535-2.166,10.322c-1.566-0.612-4.003-2.071-4.944-3.436
			c-1.126-1.636-2.645-2.585-4.713-2.39c-4.246,0.4-2.1,7.416-4.082,10.18c-0.706-1.458-5.698-10.158-8.139-7.202
			c-1.543,1.869-0.656,4.069,0.447,5.902C22.344,15.056,22.996,16.413,23.933,17.578z M21.062,20.778
			c-1.704-2.371-3.539-2.677-6.454-2.677c-0.506,0-5.405,0.367-5.446-0.336c0.084-1.053,1.593-5.491,2.849-4.775
			c1.744,0.993,2.736-0.031,3.05-1.364c0.334-1.418-0.099-3.185-1.206-3.243c-1.253-0.065-2.393-0.784-3.999-0.52
			c-3.21,0.526-5.439,6.417-6.054,9.231c-0.656,3,0.69,5.417,3.715,6.002c1.732,0.336,3.594,0.496,5.342,0.211
			c1.102-0.179,3.295-0.78,4.012,0.489c0.192,1.961-1.561,3.539-3.391,3.943c-1.388,0.31-4.78-0.925-5.267,1.025
			c-1.339,5.368,6.143,4.946,9.176,3.257C21.105,29.95,23.768,24.541,21.062,20.778z M103.08,41.734
			c-6.63-6.121-14.33-11.12-22.521-14.902c-4.303-1.988-8.816-3.507-13.446-4.523c-4.474-0.982-9.021-0.901-13.552-0.69
			c-0.299,0.014-0.567-0.013-0.84-0.016c-0.197-0.003-0.397,0.009-0.612,0.056c-0.489,0.11-0.943,0.238-1.438,0.294
			c-1.437,0.158-2.88,0.243-4.312,0.389c-1.388,0.144-2.812,0.689-4.144,1.093c-1.684,0.513-3.132,1.027-4.672,1.767
			c-0.979,0.473-1.358,1.642-2.369,2.24c-6.78,4.005-12.844,11.327-16.41,18.329c-4.166,8.183-4.061,16.761-4.178,25.729
			c-0.119,8.987,3.228,17.194,7.981,24.678c1.329,1.446,2.941,3.267,3.691,5.087c0.853,2.077,1.665,2.189,3.681,2.955
			c0.699,2.141,6.067,4.919,8.041,5.696c3.726,1.969,8.128,3.686,12.303,4.252c3.991,0.543,7.965,0.552,12.055,0.486
			c5.074-0.082,9.943-1.451,14.85-2.728c1.866-1.104,3.948-1.759,5.776-2.88c1.602-0.981,3.234-2.051,4.855-2.938
			c3.674-2.008,7.013-5.224,9.679-8.338c2.45-2.864,4.171-6.703,6.833-9.301c1.255-4.454,3.842-8.37,4.902-12.923
			c1.062-4.556,1.749-8.778,1.809-13.472C111.136,54.663,108.63,46.857,103.08,41.734z M103.323,66.019
			c-0.035,0.112-3.562,0.048-3.938,0.086c-0.577,0.059-1.079,0.2-1.661,0.203c-0.545,0.002-1.122-0.032-1.606,0.27
			c-1.73,1.075-0.736,3.919,0.6,4.85c0.754,0.524,1.682,0.759,2.581,0.877c0.241,0.032,2.644,0.264,2.684,0.08
			c-0.863,3.965-2.627,7.595-4.691,11.06c-1.622,3.3-4.951,5.771-6.367,9.047c-1.768-1.037-2.547-3.78-4.719-4.174
			c-1.005-0.182-2.335,0.466-2.853,1.337c-0.555,0.928-0.555,2.212-0.188,3.208c0.154,0.417,2.521,4.584,2.398,4.656
			c-6.247,3.692-12.432,7.451-21.446,8.377c-1.074-3.394,1.059-9.994-3.016-10.389c-3.242,0.065-3.656,3.338-3.693,5.912
			c-0.024,1.606,0.073,3.209,0.007,4.811c-1.854,0.057-3.658-0.272-5.474-0.599c-2.139-0.383-3.711-0.811-5.73-1.559
			c-1.668-0.618-3.363-1.75-5.047-2.198c-1.609-0.428-2.704-3.15-4.859-3.35c0.963-2.459,5.333-6.485,2.269-8.972
			c-2.897-2.353-5.653,2.762-7.965,3.272c-4.565-5.374-8.007-11.875-9.384-20.44c3.145-0.206,7.02,0.317,7.708-2.344
			c0.114-4.755-4.789-4.021-8.042-4.021c0.354-1.541-0.208-3.339,1.005-4.691c0.127-2.711,0.78-5.326,1.707-7.868
			c0.423-1.159,0.889-2.302,1.333-3.454c0.613-1.588,1.049-1.86,2.321-2.953c2.097-1.802,3.541-4.206,5.026-6.5
			c1.371,0.22,1.412,1.983,2.681,2.345c1.032,0.82,1.966,1.607,3.352,1.675c3.681-0.031,3.652-4.738,1.412-6.605
			c-2.231-1.863-1.72-2.559,0.382-3.748c2.007-1.137,4.079-2.153,6.125-3.216c0.852-0.441,1.792-1.176,2.776-1.578
			c0.474-0.193,0.957-0.31,1.446-0.282c0.349,0.021,0.549,0.192,0.865,0.277c0.457,0.125,0.951,0.072,1.423,0.072
			c0.276,0,3.33,0.002,3.33,0c-0.008,3.016-1.184,8.079,3.017,8.713c4.904-1.534,1.763-5.154,3.351-8.713
			c4.779,0.762,9.065,1.96,13.579,3.654c3.588,1.347,6.78,3.44,10.155,5.283c1.119,0.612,5.003,2.402,3.545,3.731
			c-1.626,1.479-4.41,4.433-2.147,6.769c3.704,0.461,4.358-2.381,6.702-4.358c3.276,0.667,6.238,5.372,7.512,8.153
			C103.561,56.599,104.661,61.798,103.323,66.019z M82.516,49.393c-2.675-2.297-12.885,2.67-15.04,3.492
			c-4.406,1.681-8.908,3.478-13.192,5.454c-2.386,1.099-5.406,2.694-7.98,3.186c-1.416,0.271-3.761,0.984-4.972,1.814
			c-2.283,0.673-9.17,2.552-9.383,5.696c1.221,3.114,5.612,1.862,7.709,3.796c1.812,1.669,6.351,2.464,8.764,3.188
			c0.9,0.271,1.824,0.556,2.628,1.059c0.247,1.102,0.483,2.206,0.707,3.313c0.406,2.023,0.633,3.87,0.633,5.935
			c0,1.74-1.265,7.6,0.336,8.846c2.286,0.243,2.801-2.101,4.195-3.344c1.847-1.646,3.473-3.523,5.268-5.224
			c1.601-1.517,3.143-3.039,4.109-5.056c1.451-3.023,3.213-5.874,5.097-8.642c1.646-2.415,4.031-4.374,5.229-7.077
			c1.641-3.702,3.705-7.376,5.073-11.181c0.415-1.154,1.774-3.276,1.325-4.517C82.912,49.829,82.741,49.583,82.516,49.393z
			 M58.086,69.37c-0.882-6.435,8.807-5.513,9.048-0.671C66.712,73.149,59.195,73.255,58.086,69.37z"/>
	</g>
</g>
<g>
</g>
<g>
</g>
<g>
</g>
<g>
</g>
<g>
</g>
<g>
</g>
<g>
</g>
<g>
</g>
<g>
</g>
<g>
</g>
<g>
</g>
<g>
</g>
<g>
</g>
<g>
</g>
<g>
</g>
</svg>
