<?xml version="1.0" encoding="iso-8859-1"?>
<!-- Generator: Adobe Illustrator 19.0.0, SVG Export Plug-In . SVG Version: 6.00 Build 0)  -->
<svg version="1.1" id="Capa_1" xmlns="http://www.w3.org/2000/svg" xmlns:xlink="http://www.w3.org/1999/xlink" x="0px" y="0px"
	 viewBox="0 0 113.756 113.756" style="enable-background:new 0 0 113.756 113.756;" xml:space="preserve">
<g id="_x30_301-temperature-weather-icon">
	<g>
		<path style="fill-rule:evenodd;clip-rule:evenodd;" d="M75.14,82.625c-0.915-0.92-2.181-1.42-2.96-2.502
			c-0.94-1.303-0.498-4.998-0.604-6.592c-0.328-4.885-0.618-9.777-0.699-14.674c-0.173-10.336-0.025-20.75,0.036-31.092
			c0.03-5.047-0.286-10.295-1.607-15.205c-1.167-4.332-3.06-8.076-6.633-10.914c-2.308-1.832-5.975-2.191-8.56-0.793
			c-3.89,2.105-6.85,3.498-8.565,7.758c-1.731,4.299-1.096,8.348-1.328,12.822c-0.106,2.059-3.548,1.18-5.072,1.18
			c-0.312,0.549-1.166,0.514-1.676,0.67c-0.54,0.432-0.48,1.232-1.005,1.676c0.088,2.096,1.854,2.836,3.666,3.139
			c0.993,0.166,2,0.246,2.993,0.412c1.254,0.205,0.758,2.023,0.671,3.111c-0.099,1.25-0.099,2.394-1.497,2.383
			c-1.114-0.009-2.239-0.033-3.346,0.117c-1.684,0.226-3.107,1.035-3.158,2.902c0.423,2.461,3.016,2.621,5.078,2.631
			c1.608,0.006,2.295-0.141,2.295,1.631v3.733c0,1.313,0.688,3.701-0.853,3.795c-0.851,0.055-1.704,0.088-2.55,0.193
			c-1.687,0.207-3.449,0.818-3.636,2.762c0.556,1.979,3.217,2.264,4.916,2.289c1.525,0.021,2.122-0.08,2.122,1.584v8.34
			c0,1.816-0.591,1.184-2.136,1.363c-2.002,0.236-4.353,0.727-5.572,2.51c0.236,3.5,5.435,2.762,7.708,2.346v6.367
			c-2.549-0.146-6.282-0.168-6.032,3.35c0.302,4.227,6.365,0.021,7.014,2.035c0.095,0.295-0.197,0.658-0.659,1.035
			c-1.006,0.824-2.812,1.729-3.173,2.205c-0.893,1.176-1.62,1.996-2.135,3.398c-1.132,3.092-1.808,6.283-1.76,9.586
			c0.111,7.695,8.097,16.09,16.212,15.557c4.476-0.293,8.5-0.584,12.428-2.988c3.001-1.832,5.505-4.32,8.243-6.5
			C78.932,99.767,80.157,87.676,75.14,82.625z M65.392,101.842c-3.834,4.398-10.024,6.07-15.583,4.273
			c-2.847-0.922-6.231-3.318-6.879-6.408c-0.453-2.168-0.539-4.434-0.268-6.631c0.198-1.609,2.107-3.192,3.187-4.447
			c0.677-2.023,3.396-1.221,3.284-3.688c-0.09-2.018,0.058-4.039,0.087-6.061c0.06-4.32-0.341-8.604-0.351-12.918
			c-0.026-9.939-0.167-19.729,0.226-29.672c0.201-5.082,0.57-10.139,0.69-15.227c0.089-3.725-1.067-12.209,3.305-13.828
			c0.285-0.102,0.6-0.185,0.935-0.24c9.785-1.668,9.677,15.264,9.605,21.016c-0.114,9.143,0.619,18.189,0.707,27.342
			c0.089,9.445,1.111,18.883,0.975,28.318c-0.038,2.621,1.009,2.58,2.496,4.307c1.029,1.201,1.277,3.096,1.25,4.572
			C68.989,96.074,67.695,99.201,65.392,101.842z M62.397,90.176c-0.72-1.057-2.014-0.91-2.629-1.93
			c-0.896-1.488-0.258-5.117-0.29-6.842c-0.038-2.047-0.078-4.096-0.119-6.143c-0.089-4.449-0.183-8.9-0.273-13.352
			c-0.182-8.959-0.348-17.916-0.436-26.875c-0.042-4.258-0.008-8.516-0.218-12.76c-0.074-1.488,0.211-3.241-0.534-4.606
			c-0.488-0.896-1.243-1.16-1.972-0.978c-0.618,0.155-1.217,0.631-1.617,1.315c-0.582,0.996-0.814,2.188-0.962,3.318
			c-0.295,2.267-0.138,4.542-0.14,6.817c-0.006,4.668,0.025,9.336,0.079,14.002c0.105,9.244,0.296,18.486,0.435,27.727
			c0.07,4.643,0.127,9.283,0.154,13.928c0.017,2.787,0.482,4.174-2.414,5.164c-1.557,0.533-2.258,2.113-3.268,3.352
			c-0.261,1.922-0.531,3.715-0.347,5.652c0.464,4.873,7.491,5.973,11.095,4.539c2.758-1.1,5.492-4.115,5.246-7.283
			C64.028,93.15,63.516,91.82,62.397,90.176z"/>
	</g>
</g>
<g>
</g>
<g>
</g>
<g>
</g>
<g>
</g>
<g>
</g>
<g>
</g>
<g>
</g>
<g>
</g>
<g>
</g>
<g>
</g>
<g>
</g>
<g>
</g>
<g>
</g>
<g>
</g>
<g>
</g>
</svg>
