<?xml version="1.0" encoding="iso-8859-1"?>
<!-- Generator: Adobe Illustrator 19.0.0, SVG Export Plug-In . SVG Version: 6.00 Build 0)  -->
<svg version="1.1" id="Capa_1" xmlns="http://www.w3.org/2000/svg" xmlns:xlink="http://www.w3.org/1999/xlink" x="0px" y="0px"
	 viewBox="0 0 113.553 113.553" style="enable-background:new 0 0 113.553 113.553;" xml:space="preserve">
<g id="_x30_102-drizzle-rain-icon">
	<g>
		<path style="fill-rule:evenodd;clip-rule:evenodd;" d="M93.024,36.871c-0.255-4.007-1.512-8.205-4.973-10.586
			c-1.427-0.982-3.594-2.032-5.375-1.855c-1.231,0.123-2.278,1.117-2.498-0.515c-0.116-0.864-0.258-1.726-0.438-2.579
			c-0.716-3.409-2.104-6.952-5.143-8.93c-4.047-2.632-8.295-1.427-12.402,0.338c-0.265-1.998-3.212-3.569-3.016-5.361
			c3.999-2.754,9.854-3.467,14.355-1.956c1.638,0.549,3.513,1.141,4.617,2.537c0.811,1.026,1.868,2.969,3.479,2.435
			c0.913-0.303,1.082-0.957,0.699-1.887c-0.354-0.859-0.9-1.921-1.351-2.775c0.835-0.628,1.724-1.62,2.691-2.012
			c3.489-1.411,6.442,2.632,7.456,5.446c0.814,2.262,1.535,4.701,1.475,7.127c-0.018,0.685-2.019,6.405-1.251,6.501
			c1.678,0.208,2.246-0.96,3.033-2.134c0.842-1.256,2.127-1.634,3.669-1.354c1.601,0.291,2.566,1.028,3.433,2.367
			c1.299,2.011,1.866,4.719,1.304,7.062c-0.749,3.111-2.902,3.107-5.209,4.644c-1.856,1.236,1.012,2.345,2.093,2.373
			c1.627,0.043,3.062-0.91,4.161-2.023c2.24-2.273,4.142-6.079,3.939-9.344c-0.189-3.038-1.424-5.76-3.67-7.821
			c-2.733-2.508-5.257-2.165-8.731-1.479c0.143-5.034-1.272-9.962-5.173-13.34c-2.983-2.583-7.465-1.661-10.376,0.575
			c-0.857,0.66-1.497,0.822-2.106,0.723c-0.823-0.132-1.588-0.742-2.753-1.248c-1.902-0.825-3.924-1.4-5.984-1.655
			c-2.028-0.25-4.112-0.193-6.098,0.311c-0.978,0.249-1.93,0.602-2.825,1.072c-0.735,0.386-1.474,1.221-2.216,1.499
			c-1.126,0.421-1.373,1.869-2.681,2.01c-1.11-1.027-2.37-1.889-3.729-2.554c-2.907-1.42-6.092-2.021-9.279-1.503
			c-6.232,1.014-12.955,4.009-16.96,9.148c-3.688,4.731-6.365,11.299-4.88,17.361C10.747,28.609,4.54,37.775,5.973,46.911
			c0.346,2.198,0.925,4.388,1.936,6.38c1.488,1.746,3.612,2.779,5.652,3.731c4.846,2.259,10.526,1.723,15.793,2.637
			c-2.341,2.869,2.792,5.264,4.755,1.627c1.17-2.166,2.843-1.448,5.042-1.884c0.947-0.188,2.341-0.697,3.284-0.291
			c0.556,0.24,0.888,0.777,1.508,0.902c0.717,0.145,1.635,0.191,2.021-0.508c0.207-0.374,2.764-0.312,3.275-0.432
			c2.71-0.633,5.496-0.421,8.263-0.421c1.279,0.174,3.58-0.104,4.729,0.365c1.667,0.681,3.931-0.088,5.659,0.975
			c-0.214,1.63-2.493,3.983-0.855,5.347c1.352,1.127,2.623,1.43,3.8-0.208c0.96-1.334,1.202-3.072,2.274-4.337
			c1.093-1.288,6.156-0.466,7.85-0.466c-0.005,1.086-0.396,3.425,1.34,3.35c2.037-0.344,1.961-2.938,3.686-3.686
			c2.674-0.026,5.309-0.441,7.919-0.995c4.957-1.051,9.08-3.346,10.581-8.385C106.728,43.081,100.662,35.74,93.024,36.871z
			 M87.997,54.296c0.454-1.143,1.052-2.658,0.335-4.021c-2.909,0.956-2.638,4.22-6.028,4.017c-3.517-0.21-7.049-0.261-10.615-0.308
			c-7.218-0.098-14.349-1.026-21.559-1.026c0.526-1.121,2.486-4.875,1.1-5.944c-1.042-0.803-2.697,0.963-3.194,1.731
			c-0.562,0.867-1.057,1.895-1.48,2.866c-0.636,1.457-1.588,1.346-3.059,1.347h-5.095c-0.132-1.612,1.467-2.811,0.671-4.022
			c-0.639-0.973-3.454,1.055-3.879,1.584c-0.791,0.985-0.842,2.562-1.952,3.308c-1.186,0.796-3.413,0.382-4.745,0.262
			c-1.56-0.141-3.142-0.193-4.705-0.377c-2.998-0.352-6.925-1.031-8.849-3.639c-2.742-3.718-4.542-10.929,0.82-13.222
			c2.38-1.018,4.836-1.782,7.433-1.949c1.827-0.118,4.581,1.9,6.031,0.837c2.319-1.703-0.694-3.62-1.016-5.522
			c-0.416-2.451-1.25-4.811-1.475-7.298c-0.444-4.895,2.805-9.566,6.967-11.825c4.385-2.382,9.307-4.701,14.467-4.028
			c1.974,0.258,3.722,1.265,4.984,2.796c0.633,0.766,1.136,1.632,1.537,2.538c0.197,0.447,0.333,0.909,0.5,1.366
			c0.116,0.318,0.276,0.617,0.439,0.915c0.141,0.258,0.282,0.517,0.398,0.786c0.216,0.508,0.378,1.037,0.607,1.551
			c0.227,0.51,0.27,0.942,0.41,1.467c0.138,0.519,0.697,2.049,1.465,1.967c1.315-0.139,1.617-1.563,2.67-2.132
			c1.17-0.632,1.895-0.953,3.219-1.25c2.684-0.599,4.917-0.825,7.483,0.398c5.219,2.488,2.841,8.456,5.057,12.701
			c1.471,0.32,2.025-0.96,3.351-1.005c1.41,0,3.488-0.426,4.651,0.424c2.466,1.803,3.671,4.637,3.972,7.613
			c0.164,1.62,0.432,5.174,2.618,4.918c1.278-0.149,2.597-0.224,3.871-0.002c2.532,0.439,3.762,2.292,3.654,4.807
			C97.859,51.953,92.33,53.502,87.997,54.296z M16.463,75.947c0.891,0.667,2.657-0.339,3.298-0.995
			c0.873-0.894,1.319-2.134,1.631-3.32c0.404-1.526,0.64-3.127,0.835-4.691c0.085-0.688,0.418-1.95,0.008-2.556
			c-0.112-0.165-0.243-0.261-0.385-0.305c-0.565-0.175-1.301,0.479-1.705,0.831c-1.595,1.393-2.964,3.184-3.865,5.098
			c-0.462,0.982-0.817,2.058-0.826,3.153C15.446,74.036,15.733,75.4,16.463,75.947z M50.307,74.209
			c0.538-0.086,1.039-0.303,1.47-0.636c0.93-0.722,1.438-1.875,1.762-2.974c0.387-1.315,0.538-2.695,0.597-4.06
			c0.023-0.523,0.339-3.23-0.724-2.315c-0.007,0.007-0.015,0.013-0.022,0.019c-0.548,0.476-0.987,1.019-1.557,1.458
			c-0.842,0.65-1.57,1.64-2.165,2.515c-1.131,1.668-2.041,3.859-1.212,5.851C48.572,74.346,50.029,74.253,50.307,74.209z
			 M34.717,79.762c2.608-0.603,2.968-3.589,4.262-5.485c0.424-0.622,0.587-1.573,0.787-2.283c0.315-1.117,0.641-2.334,0.583-3.504
			c-0.08-0.015-0.158-0.019-0.236-0.012c-0.577,0.051-1.059,0.655-1.476,0.986c-0.648,0.518-1.367,0.947-1.916,1.579
			c-0.909,1.048-1.94,1.998-2.685,3.179C33.347,75.314,32.252,79.716,34.717,79.762z M76.324,68.978
			c-0.069-0.053-0.797,1.123-0.924,1.238c-0.328,0.3-0.776,0.471-1.123,0.756c-0.973,0.796-1.65,1.854-2.367,2.869
			c-1.201,1.697-3.678,6.468,0.337,6.592c0.943,0.028,2.112-1.258,2.586-1.946c0.701-1.018,1.078-2.233,1.341-3.43
			c0.24-1.09,0.442-2.23,0.525-3.344c0.037-0.494,0.152-1.556-0.064-2.237C76.567,69.266,76.468,69.09,76.324,68.978z
			 M58.305,86.093c0.626-0.524,1.13-2.101,1.332-2.923c0.412-1.687,1.112-3.314,1.581-4.988c0.164-0.587,0.936-2.368,0.164-2.543
			c-0.005-0.002-0.011-0.003-0.017-0.004c-0.899-0.172-1.521,1.161-2.073,1.63c-0.982,0.834-1.852,1.707-2.582,2.795
			c-0.897,1.334-2.708,4.562-1.146,5.997C56.39,86.815,57.477,86.785,58.305,86.093z M22.475,79.166
			c-0.079,0.013-0.166,0.054-0.257,0.117c-0.453,0.31-1.019,1.137-1.311,1.414c-0.89,0.849-1.733,1.748-2.618,2.603
			c-1.351,1.306-1.817,2.253-2.713,3.864c-0.583,1.048-0.825,2.399-0.58,3.578c0.12,0.576,0.377,1.156,0.833,1.546
			c1.23,1.049,2.817-0.459,3.511-1.406c0.92-1.258,1.402-2.779,2.1-4.161c0.549-1.088,0.779-2.441,1.022-3.622
			C22.543,82.705,23.021,79.084,22.475,79.166z M69.252,84.611c0.215-0.166,0.431-0.331,0.65-0.492
			C69.556,84.374,69.355,84.527,69.252,84.611z M69.902,84.119c0.23-0.05-1.084,0.845-0.65,0.492
			c-2.085,1.601-3.995,3.4-5.358,5.612c-1.254,2.036-0.704,4.409,1.985,4.619c2.022-0.914,2.768-3.181,3.343-5.148
			C69.38,89.16,70.998,83.882,69.902,84.119z M45.721,86.643c-0.782-0.315-1.939,1.195-2.412,1.656
			c-1.022,0.996-2.009,2.046-2.852,3.201c-1.243,1.704-2.618,4.466-0.043,5.686c0.193-0.026,0.376-0.091,0.553-0.172
			c2.284-1.047,3.474-4.67,4.236-6.833C45.413,89.585,46.583,86.991,45.721,86.643z M30.695,90.486
			c-0.366,0.052-1.095,0.96-1.367,1.206c-0.659,0.595-1.305,1.203-1.929,1.836c-1.299,1.32-2.627,2.775-3.401,4.478
			c-0.35,0.771-0.607,1.673-0.35,2.512c0.119,0.392,0.353,0.764,0.662,1.035c0.31,0.271,0.677,0.375,1.06,0.438
			c0.308,0.051,0.625,0.073,0.929,0.132c0.66,0.129,1.169-0.107,1.665-0.56c1.05-0.957,1.496-2.454,2.005-3.733
			C30.337,96.905,32.403,90.247,30.695,90.486z M54.94,93.216c-0.346-0.183-1.576,0.861-1.901,1.089
			c-2.034,1.417-3.565,3.259-4.705,5.347c-0.674,1.232-0.81,3.407,0.69,4.153c0.522,0.259,1,0.355,1.437,0.322
			c2.43-0.178,3.604-4.289,4.094-6.089C54.748,97.322,55.699,93.617,54.94,93.216z M37.988,101.957
			c-0.499-0.217-1.944,1.369-2.377,1.657c-1.042,0.697-1.961,1.508-2.753,2.485c-1.229,1.52-2.933,4.3-1.539,6.214
			c3.609,4.952,5.843-6.406,6.413-8.336c0.052-0.173,0.233-0.579,0.353-0.985C38.219,102.537,38.277,102.083,37.988,101.957z
			 M63.202,104.192c-0.991-1.084-4.392,3.315-4.993,3.864c-0.875,0.8-1.592,1.726-1.69,2.942c-0.185,2.267,1.609,3.026,3.589,2.147
			c0.97-0.432,1.707-1.234,2.237-2.138c0.58-0.985,0.974-2.159,1.127-3.294c0.119-0.887,0.277-2.622-0.186-3.408
			C63.26,104.263,63.233,104.225,63.202,104.192z"/>
	</g>
</g>
<g>
</g>
<g>
</g>
<g>
</g>
<g>
</g>
<g>
</g>
<g>
</g>
<g>
</g>
<g>
</g>
<g>
</g>
<g>
</g>
<g>
</g>
<g>
</g>
<g>
</g>
<g>
</g>
<g>
</g>
</svg>
