<svg xmlns="http://www.w3.org/2000/svg" xmlns:xlink="http://www.w3.org/1999/xlink" version="1.1" id="Layer_1" x="0px" y="0px" viewBox="0 0 512 512" style="enable-background:new 0 0 512 512;" xml:space="preserve">
  <g>
    <g>
      <rect y="313.528" width="477.483" height="34.517"/>
    </g>
  </g>
  <g>
    <g>
      <rect y="428.584" width="477.483" height="34.517"/>
    </g>
  </g>
  <g>
    <g>
      <rect x="34.517" y="371.056" width="477.483" height="34.517"/>
    </g>
  </g>
  <g>
    <g>
      <path
        d="M407.71,199.956c-7.969-84.624-79.417-151.057-166.092-151.057S83.496,115.332,75.526,199.956    C32.628,207.763,0,245.401,0,290.517h34.517c0-31.721,25.807-57.528,57.528-57.528h17.258V215.73    c0-72.958,59.356-132.315,132.315-132.315s132.315,59.356,132.315,132.315v17.258h17.258c31.721,0,57.528,25.807,57.528,57.528    h34.517C483.236,245.401,450.608,207.763,407.71,199.956z"/>
    </g>
  </g>
  <g></g>
  <g></g>
  <g></g>
  <g></g>
  <g></g>
  <g></g>
  <g></g>
  <g></g>
  <g></g>
  <g></g>
  <g></g>
  <g></g>
  <g></g>
  <g></g>
  <g></g>
</svg>